<svg width="41" height="42" viewBox="0 0 41 42" fill="none" xmlns="http://www.w3.org/2000/svg">
<path fill-rule="evenodd" clip-rule="evenodd" d="M24.2638 30.3526C24.1638 31.0569 23.5438 31.6162 22.8038 31.6162H19.1038C18.3638 31.6162 17.7438 31.0569 17.6538 30.3008L17.3838 28.3432C17.1138 28.1982 16.8538 28.0429 16.5938 27.8668L14.7938 28.6125C14.0938 28.8818 13.3238 28.5814 12.9838 27.9393L11.1538 24.6559C10.8038 23.9723 10.9538 23.1644 11.5138 22.7087L13.0438 21.4762C13.0338 21.3208 13.0238 21.1654 13.0238 20.9997C13.0238 20.8443 13.0338 20.6786 13.0438 20.5233L11.5238 19.2907C10.9338 18.8246 10.7838 17.9857 11.1538 17.3435L13.0038 14.0394C13.3438 13.3972 14.1138 13.1072 14.7938 13.3869L16.6038 14.143C16.8638 13.9669 17.1238 13.8116 17.3838 13.6665L17.6538 11.6883C17.7438 10.9632 18.3638 10.3936 19.0938 10.3936H22.7938C23.5338 10.3936 24.1538 10.9529 24.2438 11.709L24.5138 13.6665C24.7838 13.8116 25.0438 13.9669 25.3038 14.143L27.1038 13.3972C27.8138 13.128 28.5838 13.4283 28.9238 14.0705L30.7638 17.3642C31.1238 18.0478 30.9638 18.8557 30.4038 19.3114L28.8838 20.544C28.8938 20.6993 28.9038 20.8547 28.9038 21.0204C28.9038 21.1861 28.8938 21.3415 28.8838 21.4969L30.4038 22.7294C30.9638 23.1955 31.1238 24.0034 30.7738 24.6559L28.9138 27.9911C28.5738 28.6332 27.8038 28.9232 27.1138 28.6436L25.3138 27.8978C25.0538 28.0739 24.7938 28.2293 24.5338 28.3743L24.2638 30.3526ZM19.5738 29.5447H22.3338L22.7038 26.9035L23.2338 26.6757C23.6738 26.4892 24.1138 26.2199 24.5738 25.8678L25.0238 25.5156L27.4038 26.5099L28.7838 24.0241L26.7538 22.3876L26.8238 21.8076L26.827 21.7797C26.8559 21.5204 26.8838 21.2697 26.8838 20.9997C26.8838 20.7201 26.8538 20.4508 26.8238 20.1918L26.7538 19.6118L28.7838 17.9753L27.3938 15.4895L25.0038 16.4838L24.5538 16.1213C24.1338 15.7898 23.6838 15.5206 23.2238 15.3238L22.7038 15.0959L22.3338 12.4547H19.5738L19.2038 15.0959L18.6738 15.3134C18.2338 15.5102 17.7938 15.7691 17.3338 16.1316L16.8838 16.4734L14.5038 15.4895L13.1138 17.9649L15.1438 19.6014L15.0738 20.1815C15.0438 20.4508 15.0138 20.7304 15.0138 20.9997C15.0138 21.269 15.0338 21.5487 15.0738 21.8076L15.1438 22.3876L13.1138 24.0241L14.4938 26.5099L16.8838 25.5156L17.3338 25.8781C17.7638 26.2199 18.1938 26.4789 18.6638 26.6757L19.1938 26.9035L19.5738 29.5447ZM24.4538 20.9997C24.4538 23.0018 22.8868 24.6249 20.9538 24.6249C19.0209 24.6249 17.4538 23.0018 17.4538 20.9997C17.4538 18.9976 19.0209 17.3746 20.9538 17.3746C22.8868 17.3746 24.4538 18.9976 24.4538 20.9997Z" fill="#3F484A"/>
</svg>
