<svg width="40" height="32" viewBox="0 0 40 32" fill="none" xmlns="http://www.w3.org/2000/svg">
<g clip-path="url(#clip0_60829_1556)">
<path fill-rule="evenodd" clip-rule="evenodd" d="M22.76 17.3154L28.49 23.2503L27 24.7936L21.27 18.8587C20.2 19.6563 18.91 20.1431 17.5 20.1431C13.91 20.1431 11 17.129 11 13.4106C11 9.69228 13.91 6.67822 17.5 6.67822C21.09 6.67822 24 9.69228 24 13.4106C24 14.8711 23.53 16.2072 22.76 17.3154ZM17.5 8.74974C15.01 8.74974 13 10.8316 13 13.4106C13 15.9897 15.01 18.0715 17.5 18.0715C19.99 18.0715 22 15.9897 22 13.4106C22 10.8316 19.99 8.74974 17.5 8.74974Z" fill="#3F484A"/>
</g>
<defs>
<clipPath id="clip0_60829_1556">
<rect y="-4.4292" width="40" height="40.8582" rx="20" fill="white"/>
</clipPath>
</defs>
</svg>
